<?xml version="1.0" standalone="no"?>
<!DOCTYPE svg PUBLIC "-//W3C//DTD SVG 20010904//EN"
 "http://www.w3.org/TR/2001/REC-SVG-20010904/DTD/svg10.dtd">
<svg version="1.0" xmlns="http://www.w3.org/2000/svg"
 width="260.000000pt" height="260.000000pt" viewBox="0 0 260.000000 260.000000"
 preserveAspectRatio="xMidYMid meet">
<metadata>
Created by potrace 1.11, written by Peter Selinger 2001-2013
</metadata>
<g transform="translate(0.000000,260.000000) scale(0.100000,-0.100000)"
fill="#000000" stroke="none">
<path d="M808 2518 c-3 -11 -2 -1144 1 -1171 1 -4 45 -6 99 -5 l97 3 0 398 c0
320 2 394 13 380 6 -9 12 -22 12 -28 0 -7 6 -25 14 -41 8 -16 47 -110 86 -209
40 -99 78 -193 85 -210 7 -16 21 -51 30 -77 17 -45 41 -77 54 -70 25 14 27 31
25 169 l-1 148 -77 175 c-42 96 -88 199 -101 228 -14 29 -25 55 -25 57 0 2
-11 28 -24 57 -33 73 -61 137 -76 176 l-12 32 -98 0 c-70 0 -99 -4 -102 -12z"/>
<path d="M1689 2483 c-12 -27 -43 -97 -69 -158 -26 -60 -56 -130 -67 -155 -12
-25 -40 -90 -63 -145 -23 -55 -54 -125 -69 -155 -24 -51 -26 -66 -29 -216 l-3
-161 27 2 c27 1 32 10 112 210 46 116 87 219 92 230 5 11 25 61 45 110 20 50
38 92 40 93 2 2 3 -176 3 -395 l0 -398 98 0 99 0 1 593 0 592 -98 0 -99 0 -20
-47z"/>
<path d="M1120 705 l0 -595 98 0 97 0 0 595 0 595 -97 0 -98 0 0 -595z"/>
<path d="M1380 1226 l0 -76 63 -1 c73 -1 81 -2 128 -22 82 -34 126 -123 115
-234 -3 -35 -12 -79 -20 -97 -18 -43 -73 -94 -111 -103 -16 -4 -33 -8 -37 -9
-5 -1 -37 -2 -73 -3 l-66 -1 3 -72 3 -73 73 3 c40 2 81 5 90 7 214 41 333 185
327 395 -4 154 -102 277 -265 335 -25 9 -87 19 -137 22 l-93 6 0 -77z"/>
</g>
</svg>
